<?xml version="1.0" encoding="UTF-8" standalone="no"?>
<svg
   xmlns:dc="http://purl.org/dc/elements/1.1/"
   xmlns:cc="http://creativecommons.org/ns#"
   xmlns:rdf="http://www.w3.org/1999/02/22-rdf-syntax-ns#"
   xmlns:svg="http://www.w3.org/2000/svg"
   xmlns="http://www.w3.org/2000/svg"
   xmlns:sodipodi="http://sodipodi.sourceforge.net/DTD/sodipodi-0.dtd"
   xmlns:inkscape="http://www.inkscape.org/namespaces/inkscape"
   version="1.1"
   x="0px"
   y="0px"
   viewBox="0 0 100 125"
   enable-background="new 0 0 100 100"
   xml:space="preserve"
   id="svg2"
   inkscape:version="0.91 r13725"
   sodipodi:docname="doctor.svg"><metadata
     id="metadata28"><rdf:RDF><cc:Work
         rdf:about=""><dc:format>image/svg+xml</dc:format><dc:type
           rdf:resource="http://purl.org/dc/dcmitype/StillImage" /></cc:Work></rdf:RDF></metadata><defs
     id="defs26" /><sodipodi:namedview
     pagecolor="#ffffff"
     bordercolor="#666666"
     borderopacity="1"
     objecttolerance="10"
     gridtolerance="10"
     guidetolerance="10"
     inkscape:pageopacity="0"
     inkscape:pageshadow="2"
     inkscape:window-width="1366"
     inkscape:window-height="706"
     id="namedview24"
     showgrid="false"
     inkscape:zoom="2.6700352"
     inkscape:cx="41.943256"
     inkscape:cy="97.827587"
     inkscape:window-x="-8"
     inkscape:window-y="-8"
     inkscape:window-maximized="1"
     inkscape:current-layer="svg2" /><path
     d="M45.82,32.193c0,1.048-0.979,1.896-2.191,1.896c-1.209,0-2.191-0.849-2.191-1.896c0-1.049,0.982-1.898,2.191-1.898  C44.84,30.295,45.82,31.144,45.82,32.193z"
     id="path4"
     style="fill:#1abc9c;fill-opacity:1" /><path
     d="M58.561,32.193c0,1.048-0.98,1.896-2.191,1.896c-1.21,0-2.19-0.849-2.19-1.896c0-1.049,0.98-1.898,2.19-1.898  C57.58,30.295,58.561,31.144,58.561,32.193z"
     id="path6"
     style="fill:#1abc9c;fill-opacity:1" /><path
     d="M46.26,43.374c1.072,1.075,2.357,1.704,3.739,1.704s2.667-0.628,3.74-1.704c0.38-0.382,0.208-0.731-0.33-0.731H46.59  C46.052,42.643,45.88,42.992,46.26,43.374z"
     id="path8"
     style="fill:#1abc9c;fill-opacity:1" /><path
     d="M45.865,29.631c-0.819-0.238-1.758-0.365-2.723-0.365c-0.964,0-1.902,0.128-2.722,0.364  c-0.465,0.135-0.981-0.064-1.174-0.509c-0.192-0.444,0.012-0.964,0.474-1.109c1.031-0.324,2.216-0.499,3.422-0.499  s2.392,0.175,3.423,0.499c0.462,0.145,0.666,0.665,0.474,1.109C46.847,29.565,46.331,29.765,45.865,29.631z"
     id="path10"
     style="fill:#1abc9c;fill-opacity:1" /><path
     d="M59.578,29.631c-0.82-0.238-1.758-0.365-2.723-0.365c-0.964,0-1.902,0.128-2.721,0.364  c-0.467,0.134-0.982-0.064-1.175-0.509c-0.191-0.444,0.011-0.964,0.474-1.109c1.029-0.324,2.215-0.499,3.422-0.499  c1.206,0,2.391,0.175,3.423,0.499c0.461,0.145,0.666,0.664,0.474,1.109l0,0C60.56,29.565,60.044,29.765,59.578,29.631z"
     id="path12"
     style="fill:#1abc9c;fill-opacity:1" /><path
     d="M52.103,37.852c-0.25,0.066-1.449,0.402-2.103,0.402c-0.655,0-1.854-0.336-2.104-0.402s-0.44,0.179-0.204,0.373  c0.662,0.549,1.456,1.271,2.307,1.272l0,0H50h0l0,0c0.852-0.001,1.646-0.723,2.308-1.272C52.543,38.031,52.353,37.786,52.103,37.852  z"
     id="path14"
     style="fill:#1abc9c;fill-opacity:1" /><path
     d="M68.215,28.228c0.281-3.09,0.582-11.068-3.168-15.404c-1.473-1.704-3.394-2.663-5.721-2.859  c-0.309-1.593-1.389-2.922-3.118-3.806c-3.782-1.931-10.977-1.688-16.862,2.571c-3.419,2.475-8.815,8.242-7.508,19.451  c-1.441,1.347-0.578,4.576-0.09,6.02c0.849,2.511,2.114,4.181,3.568,4.823c2.895,8.727,9.198,13.375,14.683,13.375  c5.486,0,11.789-4.647,14.683-13.375c1.455-0.642,2.719-2.313,3.568-4.823C68.731,32.773,69.583,29.604,68.215,28.228z   M63.542,32.481c-1.39,12-8.757,17.397-13.544,17.397c-4.786,0-12.152-5.397-13.543-17.397c-0.817-7.041-0.011-12.152,2.331-14.78  c1.174-1.319,2.761-1.988,4.714-1.988c0.901,0,1.891,0.142,2.943,0.421c0.99,0.261,2.251,0.408,3.56,0.412  c1.301-0.004,2.562-0.151,3.553-0.413c3.327-0.882,5.938-0.36,7.655,1.567C63.553,20.33,64.358,25.44,63.542,32.481z"
     id="path16"
     style="fill:#1abc9c;fill-opacity:1" /><path
     d="M81.981,61.969c-1.87-1.87-5.043-3.248-8.717-4.843c-3.61-1.567-7.701-3.344-10.76-5.801l-0.003,0.004  c-0.213-0.171-0.479-0.278-0.774-0.278c-0.625,0-1.136,0.463-1.222,1.064L60.5,52.114c-0.014,0.102-1.254,8.278-6.599,16.38  l-1.257-4.458c0.656-0.546,1.074-1.368,1.074-2.289v-1.488c0-1.643-1.332-2.975-2.975-2.975h-1.488  c-1.643,0-2.976,1.332-2.976,2.975v1.488c0,0.92,0.418,1.743,1.075,2.289l-1.254,4.455c-5.333-8.093-6.587-16.276-6.601-16.379  l-0.005,0.002c-0.086-0.601-0.598-1.063-1.222-1.063c-0.294,0-0.562,0.106-0.774,0.278l-0.003-0.004  c-3.058,2.457-7.149,4.233-10.76,5.801c-3.674,1.595-6.847,2.973-8.718,4.843c-3.508,3.509-4.38,16.658-4.494,27.072  c-0.017,1.569,0.586,3.054,1.7,4.18C16.357,94.368,17.87,95,19.482,95h61.036c1.611,0,3.124-0.632,4.259-1.778  c1.113-1.126,1.717-2.611,1.701-4.181C86.361,78.627,85.489,65.477,81.981,61.969z M83.014,91.478  c-0.666,0.673-1.552,1.043-2.496,1.043H19.482c-0.944,0-1.831-0.371-2.496-1.043c-0.644-0.651-0.994-1.507-0.983-2.409  c0.147-13.457,1.591-23.169,3.768-25.347c1.537-1.537,4.653-2.889,7.953-4.321c3.168-1.376,6.688-2.913,9.706-4.959  c0.935,4.119,3.85,13.847,11.686,21.688c0.225,0.23,0.538,0.373,0.885,0.373c0.345,0,0.656-0.141,0.881-0.368  c7.84-7.842,10.756-17.574,11.69-21.694c3.019,2.048,6.537,3.584,9.706,4.96c3.299,1.432,6.414,2.784,7.951,4.321  c2.177,2.177,3.621,11.889,3.769,25.346C84.007,89.971,83.657,90.826,83.014,91.478z"
     id="path18"
     style="fill:#1abc9c;fill-opacity:1" /><path
     d="M32.6,76.387V56.225h-2.479V76.37c-0.798,0.205-1.554,0.612-2.18,1.232c-1.888,1.869-1.888,4.919,0,6.813  c1.889,1.895,4.95,1.915,6.838,0.046c1.888-1.87,1.888-4.92,0-6.814C34.153,77.02,33.398,76.603,32.6,76.387z"
     id="path20"
     style="fill:#1abc9c;fill-opacity:1" /><path
     d="M78.49,80.547l-2.345-11.088c-0.829-4.75-3.234-7.896-6.415-8.544v-4.787h-2.479v4.787c-3.18,0.647-5.585,3.789-6.407,8.501  l-2.353,11.131c-0.314,1.487,0.183,2.502,0.655,3.091c0.823,1.026,2.152,1.509,3.229,1.734c0.357,0.607,1.011,1.02,1.768,1.02  c1.137,0,2.06-0.921,2.06-2.06c0-1.138-0.923-2.059-2.06-2.059c-0.576,0-1.097,0.239-1.47,0.621  c-0.637-0.155-1.274-0.41-1.593-0.808c-0.141-0.176-0.285-0.45-0.163-1.027l2.36-11.174c0.533-3.055,2.219-6.621,5.213-6.621  c2.995,0,4.68,3.566,5.221,6.664l2.353,11.131c0.122,0.576-0.022,0.85-0.162,1.024c-0.315,0.396-0.957,0.651-1.596,0.808  c-0.374-0.381-0.894-0.617-1.469-0.617c-1.136,0-2.058,0.921-2.058,2.059s0.922,2.059,2.058,2.059c0.757,0,1.41-0.412,1.769-1.02  c1.077-0.226,2.406-0.708,3.229-1.734C78.308,83.048,78.805,82.033,78.49,80.547z"
     id="path22"
     style="fill:#1abc9c;fill-opacity:1" /></svg>