<?xml version="1.0" encoding="UTF-8" standalone="no"?>
<svg
   xmlns:dc="http://purl.org/dc/elements/1.1/"
   xmlns:cc="http://creativecommons.org/ns#"
   xmlns:rdf="http://www.w3.org/1999/02/22-rdf-syntax-ns#"
   xmlns:svg="http://www.w3.org/2000/svg"
   xmlns="http://www.w3.org/2000/svg"
   xmlns:sodipodi="http://sodipodi.sourceforge.net/DTD/sodipodi-0.dtd"
   xmlns:inkscape="http://www.inkscape.org/namespaces/inkscape"
   version="1.1"
   x="0px"
   y="0px"
   viewBox="0 0 100 125"
   style="enable-background:new 0 0 100 100;"
   xml:space="preserve"
   id="svg2"
   inkscape:version="0.91 r13725"
   sodipodi:docname="patient.svg"><metadata
     id="metadata42"><rdf:RDF><cc:Work
         rdf:about=""><dc:format>image/svg+xml</dc:format><dc:type
           rdf:resource="http://purl.org/dc/dcmitype/StillImage" /></cc:Work></rdf:RDF></metadata><defs
     id="defs40" /><sodipodi:namedview
     pagecolor="#ffffff"
     bordercolor="#666666"
     borderopacity="1"
     objecttolerance="10"
     gridtolerance="10"
     guidetolerance="10"
     inkscape:pageopacity="0"
     inkscape:pageshadow="2"
     inkscape:window-width="1366"
     inkscape:window-height="706"
     id="namedview38"
     showgrid="false"
     inkscape:zoom="1.888"
     inkscape:cx="-14.618644"
     inkscape:cy="61.970339"
     inkscape:window-x="-8"
     inkscape:window-y="-8"
     inkscape:window-maximized="1"
     inkscape:current-layer="svg2" /><g
     id="g4"
     style="fill:#1abc9c;fill-opacity:0.99215686"><path
       d="M28.328125,14.6044922h0.7172852v0.7177734c0,0.5522461,0.4477539,1,1,1s1-0.4477539,1-1v-0.7177734h0.7177734   c0.5522461,0,1-0.4477539,1-1s-0.4477539-1-1-1h-0.7177734v-0.7177734c0-0.5522461-0.4477539-1-1-1s-1,0.4477539-1,1v0.7177734   H28.328125c-0.5522461,0-1,0.4477539-1,1S27.7758789,14.6044922,28.328125,14.6044922z"
       id="path6"
       style="fill:#1abc9c;fill-opacity:0.99215686" /><path
       d="M7.3588867,45.7973633c-0.0205078,0.2060547-0.0322266,0.4125977-0.034668,0.6196289   c-0.0058594,0.5527344,0.4365234,1.0048828,0.9887695,1.0112305c0.0039062,0,0.0078125,0,0.0112305,0   c0.5473633,0,0.9941406-0.4404297,1-0.9887695c0.0014648-0.1484375,0.0102539-0.2963867,0.0249023-0.4438477   c0.0546875-0.5498047-0.3466797-1.0395508-0.8959961-1.0942383C7.8935547,44.8427734,7.4130859,45.2485352,7.3588867,45.7973633z"
       id="path8"
       style="fill:#1abc9c;fill-opacity:0.99215686" /><path
       d="M9.9453125,43.8618164c1.0014648-2.2006836,2.8554688-3.440918,2.8740234-3.453125   c0.4609375-0.3017578,0.5908203-0.9194336,0.2905273-1.3818359c-0.3017578-0.4624023-0.9204102-0.59375-1.3837891-0.2929688   C11.6308594,38.7958984,9.3759766,40.2851562,8.125,43.0336914c-0.2290039,0.5024414-0.0068359,1.0952148,0.4960938,1.3242188   c0.1342773,0.0610352,0.2749023,0.090332,0.4135742,0.090332C9.4145508,44.4477539,9.777832,44.2304688,9.9453125,43.8618164z"
       id="path10"
       style="fill:#1abc9c;fill-opacity:0.99215686" /><path
       d="M18.6015625,14.3193359c0.0356445,0.003418,0.0703125,0.0053711,0.1054688,0.0053711   c0.5053711,0,0.9394531-0.3823242,0.9931641-0.8959961c0.0244141-0.2353516,0.0805664-0.3149414,0.0776367-0.3168945   c0.0205078-0.0078125,0.0727539-0.0102539,0.1074219-0.0039062c0.5302734,0.1225586,1.0576172-0.1967773,1.1943359-0.722168   c0.1391602-0.534668-0.1816406-1.0805664-0.7158203-1.2197266c-0.1567383-0.0419922-0.9755859-0.21875-1.7202148,0.2988281   c-0.3686523,0.2553711-0.8295898,0.7670898-0.9326172,1.7558594C17.6538086,13.7700195,18.0522461,14.262207,18.6015625,14.3193359   z"
       id="path12"
       style="fill:#1abc9c;fill-opacity:0.99215686" /><path
       d="M46.1279297,54.6611328l-0.0009766-8.1196289c-0.3862915-8.5352173-9.3027954-13.2603149-12.680481-14.7495117   c1.2798462-2.3395996,2.0549927-5.2059326,2.0549927-8.2739258V12.5131836c0-2.0068359-1.4951172-3.7319336-3.4780273-4.0131836   c-1.6591797-0.2353516-4.1860352-0.515625-6.8022461-0.515625c-2.6025391,0-5.097168,0.2783203-6.7319336,0.5117188   c-1.9794922,0.2827148-3.4726562,2.0078125-3.4726562,4.012207v11.0097656c0,3.0657349,0.7271118,5.8960571,1.9450684,8.2069702   C13.7059937,33.1386719,4.520874,37.8849487,4.1279297,46.5869141v8.0742188c0,5.015625,1.4414062,9.8925781,4.1679688,14.1035156   l1.7089844,2.6386719v19.1083984c0,0.5527344,0.4477539,1,1,1s1-0.4472656,1-1V56.7041016c0-0.5527344-0.4477539-1-1-1   s-1,0.4472656-1,1v11.0194092l-0.0302734-0.0467529c-2.5166016-3.8857422-3.8466797-8.3867188-3.8466797-13.015625   l-0.0009766-8.0288086c0.2682495-5.9301758,5.6446533-9.8878784,9.2947998-11.9033203   c-0.9555054,2.3419189-2.1593018,6.5568237-2.1752319,12.9417114c-1.241394,0.4194946-2.1434937,1.5819092-2.1434937,2.9630737   c0,1.7314453,1.4091797,3.140625,3.1411133,3.140625s3.140625-1.4091797,3.140625-3.140625   c0-1.3794556-0.8994751-2.5407104-2.1383057-2.9616089c0.0240479-9.1975098,2.6557617-13.5891724,2.9326782-14.0241699   c0.0453491,0.0596313,0.0931396,0.1155396,0.1392822,0.1740723c-1.6832886,6.6348877,5.8389282,15.1085815,6.1674194,15.4738159   c0.1875,0.2089844,0.4545898,0.3291016,0.7353516,0.331543c0.0029297,0,0.0053711,0,0.0083008,0   c0.277832,0,0.543457-0.1157227,0.7329102-0.3198242c0.3102417-0.3338623,7.3272705-8.0165405,6.1846313-15.1372681   c0.5199585,1.1709595,1.515625,3.5769653,1.8321533,5.4751587c-1.3652954,0.6096802-2.3355713,1.9335327-2.4235229,3.4799805   l-0.3232422,5.6606445c-0.059082,1.0439453,0.3193359,2.0791016,1.0390625,2.8388672   c0.1962891,0.2080078,0.4609375,0.3134766,0.7260742,0.3134766c0.2470703-0.0009766,0.4941406-0.0908203,0.6875-0.2744141   c0.4008789-0.3798828,0.418457-1.012207,0.0385742-1.4135742c-0.3422852-0.3618164-0.5224609-0.8540039-0.4941406-1.3505859   l0.3232422-5.6606445c0.0556641-0.9799805,0.8012695-1.7944336,1.7724609-1.9370117   c0.9716797-0.1416016,1.9194336,0.4243164,2.2543945,1.347168l1.9331055,5.3295898   c0.1625977,0.4482422,0.1430664,0.9350586-0.0546875,1.3701172c-0.2280273,0.5029297-0.0058594,1.0957031,0.4970703,1.3242188   c0.5019531,0.2260742,1.0957031,0.0058594,1.3242188-0.4970703c0.4150391-0.9140625,0.4555664-1.9365234,0.1132812-2.8789062   l-1.9331055-5.3300781c-0.5514526-1.5183716-1.9522705-2.5350342-3.5118408-2.6615601   c-0.270752-1.6015015-0.9251709-3.4274292-1.4729004-4.7734985c3.6447754,1.9455566,9.376709,5.9577026,9.6531982,12.0546875   v8.0742188c0,4.6289062-1.3300781,9.1298828-3.8461914,13.015625l-0.0537109,0.0828857v-11.055542c0-0.5527344-0.4477539-1-1-1   s-1,0.4472656-1,1v33.8076172c0,0.5527344,0.4477539,1,1,1s1-0.4472656,1-1v-19.072876l1.7324219-2.6741943   C44.6870117,64.5537109,46.1279297,59.6767578,46.1279297,54.6611328z M17.0969849,25.0727539   c0.0350952-0.0093384,0.071167-0.0164795,0.1060791-0.0261841c0.1751709,0.8494263,0.6730347,1.6062012,1.4014282,2.0808716   c0.0209961,0.1044922,0.050293,0.206543,0.0874023,0.3071289c0.2075195,0.5581055,0.6196289,1.0024414,1.1611328,1.2504883   c0.2963867,0.1357422,0.6113281,0.2036133,0.9277344,0.2036133c0.262207,0,0.5249023-0.046875,0.7773438-0.140625   c0.902832-0.3354492,1.4863281-1.2070312,1.4526367-2.1689453c-0.0195312-0.5517578-0.4521484-0.984375-1.034668-0.9643555   c-0.5517578,0.0195312-0.9833984,0.4824219-0.9643555,1.034668c0.0029297,0.0825195-0.0424805,0.1835938-0.1503906,0.2241211   c-0.0742188,0.0258789-0.1357422,0.0117188-0.1748047-0.0068359c-0.0395508-0.0180664-0.0922852-0.0551758-0.1196289-0.128418   c-0.0024414-0.0063477-0.0068359-0.0380859,0.0014648-0.1049805c0.059082-0.4589844-0.2045898-0.8979492-0.6367188-1.0620117   c-0.4926758-0.1870117-0.8110352-0.644043-0.8110352-1.1645508c0-0.6899414,0.5615234-1.2514648,1.2514648-1.2514648   c0.3564453,0,0.6967773,0.152832,0.9350586,0.4199219c0.3662109,0.4111328,0.9980469,0.4482422,1.4121094,0.0800781   c0.4116211-0.3676758,0.4477539-1,0.0800781-1.4121094c-0.2658691-0.2977905-0.5879517-0.5283203-0.9348755-0.7086182   c0.3609009-0.5770264,0.6224976-1.1307983,0.7980957-1.5869141c2.0300903,1.8452759,5.1290283,3.8580322,8.9893188,3.8580322   c0.5953979,0,1.2150879-0.0690308,1.845459-0.1728516c-0.0199585,2.8930664-0.7860107,5.5761108-2.0250244,7.6640625   c-0.0494995,0.0198975-0.0927734,0.0466309-0.1386108,0.0741577c-1.239624,0.3058472-2.6454468-0.3037109-2.6691284-0.3143921   c-0.5009766-0.2265625-1.0927734-0.0073242-1.3227539,0.4931641c-0.2304688,0.5019531-0.0102539,1.0957031,0.4916992,1.3256836   c0.0567017,0.026123,0.9075317,0.4036255,2.0246582,0.5376587c-1.333313,1.3403931-2.9345093,2.1361694-4.6374512,2.1361694   C21.1326904,35.5493164,17.6364746,30.8903198,17.0969849,25.0727539z M33.5014648,21.6066895   c-3.8431396,0.7606812-7.0214233-1.022644-9.114502-2.8094482c2.7605591-0.0469971,5.9400024,0.0491333,9.114502,0.4551392   V21.6066895z M19.7324219,21.1010742c-0.0336914,0.0421143-0.0452271,0.0924683-0.0710449,0.1378784   c-0.9299927,0.2087402-1.699585,0.8200684-2.1403809,1.6374512c-0.0806274,0.0102539-0.1616211,0.0115356-0.2407227,0.0425415   c-0.0828857,0.0325928-0.1781006,0.0477295-0.2636719,0.0771484v-3.7375488   c0.8151855-0.09198,2.1692505-0.2255859,3.8878174-0.3284912C20.7315063,19.4477539,20.3797607,20.2915039,19.7324219,21.1010742z    M18.7719727,10.4755859c1.5703125-0.2241211,3.9638672-0.4912109,6.4492188-0.4912109   c2.4995117,0,4.9257812,0.2695312,6.5209961,0.4960938c1.0029297,0.1420898,1.7592773,1.0161133,1.7592773,2.0327148v4.7225342   c-6.9966431-0.8638306-13.8369751-0.2877808-16.4848633,0.006958v-4.734375   C17.0166016,11.4926758,17.7714844,10.6186523,18.7719727,10.4755859z M14.2441406,51.7744141   c-0.6293945,0-1.1411133-0.5117188-1.1411133-1.140625s0.5117188-1.140625,1.1411133-1.140625   c0.6289062,0,1.140625,0.5117188,1.140625,1.140625S14.8730469,51.7744141,14.2441406,51.7744141z M25.237793,47.0766602   c-1.6217041-2.0286255-5.3364258-7.171875-5.1641846-11.463562c1.5132446,1.2224731,3.2687378,1.9362183,5.1470947,1.9362183   c1.8296509,0,3.5612793-0.7029419,5.0685425-1.9025879C30.3594971,40.2359009,26.8183594,45.1292114,25.237793,47.0766602z"
       id="path14"
       style="fill:#1abc9c;fill-opacity:0.99215686" /><path
       d="M94.8720703,79.2070312h-3.703125c-0.0223389,0-0.0409546,0.0112305-0.0629272,0.0126953   c-0.1126099-0.2329102-0.2421875-0.4605713-0.3759766-0.6886597c0.8823242-0.6945801,1.4596558-1.7388916,1.5072632-2.8963013   c0.1630859-3.9287109,0.4355469-11.34375,0.4355469-16.8662109c0-7.5273438-0.5078125-11.1889648-0.5205078-11.2460938   c-0.3769531-8.329834-9.4485474-12.7664795-12.2160645-13.9294434c1.7747803-2.4425049,2.873291-5.7616577,2.873291-9.4206543   v-5.1806641c0-5.4003906-4.5048828-9.8110352-10.0449219-9.8320312l-0.3681641,0.0004883   c-5.5361328,0.0317383-10.0400391,4.4428711-10.0400391,9.8325195v5.1796875c0,3.2363281,0.9121094,6.250061,2.406311,8.6120605   c0.036438,0.0622559,0.0716553,0.1217651,0.1204834,0.1747437c0.4956665,0.7572632,1.0532837,1.439209,1.6593628,2.0409546   c-2.3986206,1.2670288-9.0159912,5.4309692-9.2642822,12.9510498c-0.015625,0.1430664-0.3652344,3.5771484-0.3652344,10.6494141   c0,6.0009766,0.90625,14.2822266,1.1835938,16.6767578c0.0927734,0.8056641,0.5341797,1.5283203,1.2128906,1.9833984   l0.0099487,0.0066528c-0.6624756,0.5564575-1.3596802,1.2001953-2.0788574,1.9396362h-7.9657593c-0.5522461,0-1,0.4472656-1,1   s0.4477539,1,1,1h6.1828003c-0.6206665,0.7636719-1.2371216,1.6155396-1.8439331,2.5322266   c-0.0603027-0.0112915-0.1156006-0.0361328-0.1791992-0.0361328h-6.875c-0.5522461,0-1,0.4472656-1,1s0.4477539,1,1,1h5.8509521   c-0.8406982,1.4807739-1.6400757,3.1126099-2.3470459,4.9541016c-0.1977539,0.515625,0.0595703,1.09375,0.5751953,1.2919922   c0.1181641,0.0449219,0.2392578,0.0664062,0.3583984,0.0664062c0.4013672,0,0.78125-0.2441406,0.9335938-0.6416016   c4.1052856-10.6939087,11.4273071-14.6473389,12.6444092-15.2423706c0.7678833,0.0336304,3.2450562,0.1300659,6.6202393,0.1300659   c3.112793,0,6.9859009-0.085022,10.9656372-0.3734131c0.0050049,0.0552368,0.0098267,0.1124878,0.0148315,0.1673584   c0.0894165,0.9798584,0.5331421,1.8442383,1.1968384,2.4761963c-1.1685181,0.9200439-2.2817993,2.4315796-1.4839478,4.1585693   c0.4931641,1.0683594,1.4951172,1.4423828,2.2998047,1.515625c0.1767578,0.3076172,0.4003906,0.7392578,0.5322266,1.15625   c0.0281372,0.0891113,0.069458,0.1705322,0.1044312,0.2557983c-1.8753052,2.168396-2.1928101,4.4789429-2.2948608,5.2705688   c-0.0703125,0.546875,0.3173828,1.0488281,0.8652344,1.1191406c0.0429688,0.0048828,0.0859375,0.0078125,0.1279297,0.0078125   c0.4960938,0,0.9257812-0.3681641,0.9912109-0.8730469c0.1331177-1.039856,0.451355-2.5292969,1.6060181-3.9771729   c0.5333862,0.3394165,1.1582642,0.5386963,1.8178101,0.5386963c0.1347656-0.0009766,0.2714844-0.0087891,0.4082031-0.0253906   c0.5048828-0.0615234,1.015625-0.1826172,1.5205078-0.3613281c0.8237915-0.2918701,1.484314-0.8753052,1.8759155-1.6142578   h1.2774048c0.5527344,0,1-0.4472656,1-1s-0.4472656-1-1-1h-0.8535156c0.0023193-0.7243652-0.1031494-1.5899048-0.335022-2.4960938   h3.0401001c0.5527344,0,1-0.4472656,1-1S95.4248047,79.2070312,94.8720703,79.2070312z M77.8378906,37.1655273   c-0.0976562,1.9731445-2.2822266,2.8984375-4.4042969,2.9399414c-2.3720703,0.0512695-4.8603516-1.003418-5.046875-3.0991211   c-0.0166016-0.187439-0.0147095-0.366333-0.0030518-0.539978c1.3011475,0.8061523,2.7358398,1.2714233,4.2384033,1.2714233   c1.8469849,0,3.5757446-0.6681519,5.071106-1.8172607C77.8045654,36.3149414,77.8590698,36.730957,77.8378906,37.1655273z    M72.4091797,11.1601562l0.3515625-0.0004883c4.4384766,0.0170898,8.0488281,3.5302734,8.0488281,7.8320312v5.1806641   c0,2.225647-0.4794312,4.3223267-1.2875366,6.109314c-1.1673584-0.2963867-2.1607666-1.2323608-2.5480347-2.4299316   c0.0820923-0.1300049,0.1530762-0.2679443,0.2076416-0.4152222c0.0380859-0.1010742,0.0673828-0.2036133,0.0888672-0.309082   c0.9082031-0.5917969,1.4833984-1.6157227,1.4833984-2.7207031c0-1.7929688-1.4589844-3.2514648-3.2519531-3.2514648   c-0.3758545,0-0.7393188,0.0811768-1.0864868,0.2052002c-0.0067139-0.2398682,0.0131226-0.4602051,0.065979-0.5963135   c0.2216797-0.5766602,0.0917969-1.222168-0.3388672-1.6860352c-0.4736328-0.5083008-1.2070312-0.706543-1.8671875-0.5048828   c-2.125,0.6459961-3.9394531,0.9106445-5.1201172,0.7475586c-0.1844482-0.0258179-1.5471802-0.1772461-2.7988281,0.3793335   v-0.7074585C64.3564453,14.6992188,67.96875,11.1855469,72.4091797,11.1601562z M64.3564453,22.8383789   c0-0.6425781,0.2363281-0.9228516,0.4140625-1.0776367c0.5449219-0.472168,1.5800781-0.53125,2.109375-0.4594727   c1.7236328,0.2421875,3.9208984-0.2197266,5.5820312-0.6977539c-0.1542969,0.8737183,0.0153809,1.9152832,0.4485474,2.706665   c0.0072632,0.0165405,0.0142212,0.0320435,0.0223999,0.0482178c0.0111084,0.0195923,0.0175781,0.0432129,0.0290527,0.0625   c0.0515137,0.0862427,0.1155396,0.1594849,0.1860962,0.223938c0.003479,0.0032349,0.0046997,0.0077515,0.0082397,0.0109253   c0.0094604,0.0084229,0.0217896,0.010376,0.0314331,0.0183716c0.0820923,0.0678101,0.1727905,0.1196289,0.2699585,0.1578369   c0.0236206,0.0093384,0.0453491,0.0203247,0.069458,0.02771c0.0957642,0.0296631,0.1942749,0.0494995,0.295166,0.0494995   c0.0112915,0,0.022583-0.0041504,0.0338745-0.0045166c0.0241089-0.0008545,0.0465088-0.0068359,0.0704956-0.0093994   c0.0904541-0.0095825,0.178833-0.0322876,0.2660522-0.0675049c0.0296021-0.0119019,0.0580444-0.0220337,0.0866089-0.0368652   c0.0175171-0.0090942,0.036499-0.0125732,0.0537109-0.0228271c0.045105-0.0268555,0.0725708-0.0689697,0.1118164-0.1013794   c0.039917-0.0327759,0.0870972-0.052124,0.1225586-0.09198c0.2382812-0.2666016,0.578125-0.4194336,0.9345703-0.4194336   c0.6904297,0,1.2519531,0.5615234,1.2519531,1.2514648c0,0.5205078-0.3183594,0.9780273-0.8105469,1.1645508   c-0.4326172,0.1640625-0.6962891,0.6030273-0.6376953,1.0620117c0.0097656,0.0776367,0.0029297,0.1030273,0.0019531,0.1049805   c-0.0273438,0.0732422-0.0800781,0.1103516-0.1191406,0.128418c-0.0400391,0.0175781-0.1025391,0.0332031-0.1757812,0.0063477   c-0.1074219-0.0400391-0.1533203-0.140625-0.1503906-0.2226562c0.0205078-0.5522461-0.4111328-1.015625-0.9628906-1.0356445   c-0.5439453-0.027832-1.015625,0.4111328-1.0351562,0.9633789c-0.0351562,0.9624023,0.5488281,1.8339844,1.4511719,2.1699219   c0.2529297,0.09375,0.515625,0.140625,0.7783203,0.140625c0.0422363,0,0.0836792-0.0111694,0.1258545-0.0136108   c0.6143188,1.480896,1.8519897,2.6473389,3.3203735,3.1832275c-1.5042725,2.2468872-3.6154785,3.6795044-5.9179077,3.6795044   c-1.9343262,0-3.7371216-0.9906616-5.1636353-2.6170654c1.1171265-0.2667847,2.003418-0.732605,2.1460571-0.8111572   c0.4833984-0.2661133,0.6601562-0.8740234,0.3935547-1.3579102c-0.265625-0.4838867-0.8740234-0.6616211-1.3583984-0.394043   c-0.3835449,0.2111816-1.4812012,0.6879272-2.4647217,0.7434692c-1.130127-1.9810181-1.8184814-4.4644775-1.8184814-7.1287231   V22.8383789z M60.4228516,75.5986328c-0.1904297-0.1269531-0.3144531-0.328125-0.3398438-0.5507812   c-0.2744141-2.3681641-1.1699219-10.5537109-1.1699219-16.4472656c0-6.9511719,0.3505859-10.4077148,0.3583984-10.512207   c0.1854858-5.5614624,4.6051636-9.1057129,7.154541-10.6975708c0.4141846,3.1154175,3.6948242,4.7161255,6.8620605,4.7161255   c0.0615234,0,0.1240234-0.0004883,0.1845703-0.0019531c3.0507812-0.0595703,6.2011719-1.5795898,6.3632812-4.8408203   c0.0266724-0.5481567-0.0418701-1.0772095-0.1583862-1.5921631c2.916626,1.3331299,10.1775513,5.3148193,10.4855347,12.0360107   c0.0048828,0.0361328,0.5097656,3.6972656,0.5097656,11.0605469c0,5.4863281-0.2714844,12.8701172-0.4335938,16.7841797   c-0.0351562,0.859375-0.6357422,1.5751953-1.4951172,1.7832031c-0.9824219,0.2373047-1.9404297,0.3232422-2.8554688,0.2568359   c-0.9121094-0.0683594-1.6367188-0.7910156-1.7207031-1.71875c-0.8623047-9.4521484-1.3544922-24.0986328-1.359375-24.2451172   c-0.0175781-0.5527344-0.4882812-1.003418-1.0322266-0.9663086c-0.5517578,0.0185547-0.984375,0.480957-0.9658203,1.0327148   c0.0039062,0.1183472,0.3226929,9.6125488,0.8966064,18.2731934c-7.638855,0.5345459-14.7963867,0.3115234-16.7489014,0.2319946   c-0.9820557-12.5930176-0.6814575-18.4181519-0.6779785-18.4817505c0.03125-0.5517578-0.390625-1.0239258-0.9414062-1.0546875   c-0.5478516-0.046875-1.0234375,0.3896484-1.0546875,0.9414062c-0.017334,0.2924805-0.3825073,7.2780762,1.0311279,22.9198608   c-0.5292358,0.276123-1.3399048,0.7462769-2.3309937,1.4490967L60.4228516,75.5986328z M65.2913208,74.1585083   c-0.0592041-0.6590576-0.1191406-1.3217163-0.1721191-1.9501953c1.1047363,0.0415649,3.2807007,0.1071167,6.0643921,0.1071167   c3.0325928,0,6.7877197-0.0797729,10.6618042-0.350769c0.0474243,0.6548462,0.0962524,1.2992554,0.1466675,1.9299316   C74.6356201,74.4266968,67.668457,74.2470703,65.2913208,74.1585083z M90.0898438,84.4970703   c-0.1132812,0.4277344-0.4453125,0.7773438-0.8896484,0.9355469c-0.3671875,0.1289062-0.7353516,0.2167969-1.09375,0.2607422   c-0.6640625,0.0800781-1.2832031-0.3144531-1.4794922-0.9345703c-0.3330078-1.0556641-1.0273438-2.0751953-1.0566406-2.1181641   c-0.2128906-0.3095703-0.5849609-0.4707031-0.9511719-0.4267578c-0.0039062,0-0.71875,0.0625-0.9150391-0.3623047   c-0.4619141-0.9990234,1.4941406-2.1455078,1.5146484-2.15625c0.0765381-0.0423584,0.1312256-0.1053467,0.1917725-0.1630249   c0.1104126,0.0178833,0.2172241,0.0462036,0.3306885,0.0546265c0.2490234,0.0185547,0.5,0.0273438,0.7529297,0.0273438   c0.7819824,0,1.5853271-0.1017456,2.3953857-0.2755737C90.1438599,81.3308105,90.2998047,83.6990356,90.0898438,84.4970703z"
       id="path16"
       style="fill:#1abc9c;fill-opacity:0.99215686" /><path
       d="M71.5023804,84.6340332c0.0344849-0.1259155,0.0455933-0.2581177,0.0287476-0.3895874   c-0.0167847-0.1317139-0.0610352-0.256897-0.1260986-0.3703613c-0.0009155-0.0015869-0.0007935-0.0033569-0.001709-0.0049438   c-0.0158081-0.0272217-0.0421143-0.0424805-0.0599976-0.067627c-0.0568237-0.0803223-0.1159058-0.1588745-0.1950684-0.2200317   c-0.0650635-0.050293-0.1409302-0.0775146-0.2150879-0.1100464c-0.0429077-0.0189209-0.0771484-0.0501709-0.1235962-0.0632324   c-0.0027466-0.0007935-0.0055542,0.0001221-0.0083008-0.0006104c-0.2001953-0.0548096-0.4124146-0.0297852-0.6138306,0.0477295   c-0.0458984,0.0177002-0.0958862,0.0234375-0.1387329,0.0475464c-0.0036621,0.0020752-0.0079346,0.0018311-0.0115967,0.0039673   c-2.4892578,1.4462891-4.8740234,4.0839844-6.3779297,7.0576172c-0.2490234,0.4921875-0.0517578,1.09375,0.4414062,1.34375   c0.1445312,0.0732422,0.2988281,0.1074219,0.4501953,0.1074219c0.3652344,0,0.7167969-0.2001953,0.8935547-0.5488281   c0.3944092-0.7803345,1.6633911-3.0377808,3.7531128-4.8760376c-0.085022,1.2589111-0.0499268,2.8884277,0.3689575,4.6553345   c0.1083984,0.4599609,0.5185547,0.7695312,0.9716797,0.7695312c0.0761719,0,0.1542969-0.0087891,0.2314453-0.0273438   c0.5371094-0.1269531,0.8701172-0.6660156,0.7421875-1.203125c-0.7773438-3.2832031-0.0205078-6.1054688-0.0097656-6.1455078   C71.5025024,84.6377563,71.5018921,84.6359253,71.5023804,84.6340332z"
       id="path18"
       style="fill:#1abc9c;fill-opacity:0.99215686" /><circle
       cx="25.2591553"
       cy="56.3298492"
       r="1.0112152"
       id="circle20"
       style="fill:#1abc9c;fill-opacity:0.99215686" /><circle
       cx="25.2591553"
       cy="63.3402252"
       r="1.0112152"
       id="circle22"
       style="fill:#1abc9c;fill-opacity:0.99215686" /><circle
       cx="25.2591553"
       cy="70.3505859"
       r="1.0112305"
       id="circle24"
       style="fill:#1abc9c;fill-opacity:0.99215686" /><circle
       cx="25.2591553"
       cy="77.3609467"
       r="1.0112152"
       id="circle26"
       style="fill:#1abc9c;fill-opacity:0.99215686" /><circle
       cx="25.2591553"
       cy="84.3713226"
       r="1.0112152"
       id="circle28"
       style="fill:#1abc9c;fill-opacity:0.99215686" /><path
       d="M77.5136719,17.6538086c0.0205078,0.0888672,0.0380859,0.1796875,0.0517578,0.2734375   c0.0732422,0.496582,0.5009766,0.8535156,0.9882812,0.8535156c0.0488281,0,0.0976562-0.003418,0.1474609-0.0107422   c0.5458984-0.0810547,0.9238281-0.5893555,0.8427734-1.1357422c-0.0214844-0.1435547-0.0488281-0.2832031-0.0791016-0.4199219   c-0.1210938-0.5395508-0.6572266-0.8764648-1.1953125-0.7558594   C77.7304688,16.5795898,77.3925781,17.1147461,77.5136719,17.6538086z"
       id="path30"
       style="fill:#1abc9c;fill-opacity:0.99215686" /><path
       d="M73.7958984,14.3237305c0.0146484,0.003418,1.5263672,0.3706055,2.6396484,1.4545898   c0.1943359,0.1889648,0.4453125,0.2832031,0.6972656,0.2832031c0.2607422,0,0.5205078-0.1010742,0.7167969-0.3022461   c0.3847656-0.3959961,0.3769531-1.0292969-0.0195312-1.4145508c-1.5244141-1.484375-3.5009766-1.9506836-3.5839844-1.9697266   c-0.5332031-0.121582-1.0703125,0.2114258-1.1953125,0.7480469C72.9248047,13.659668,73.2597656,14.1967773,73.7958984,14.3237305z   "
       id="path32"
       style="fill:#1abc9c;fill-opacity:0.99215686" /><path
       d="M86.5341797,45.9580078c0.0361328,0.1450195,0.0673828,0.2915039,0.0908203,0.4394531   c0.0791016,0.4912109,0.5039062,0.8408203,0.9863281,0.8408203c0.0527344,0,0.1064453-0.0039062,0.1601562-0.0126953   c0.5449219-0.0878906,0.9160156-0.6010742,0.828125-1.1464844c-0.0332031-0.2036133-0.0742188-0.4047852-0.1240234-0.6044922   c-0.1337891-0.5366211-0.6777344-0.8637695-1.2128906-0.7285156   C86.7275391,44.8793945,86.4013672,45.4223633,86.5341797,45.9580078z"
       id="path34"
       style="fill:#1abc9c;fill-opacity:0.99215686" /><path
       d="M81.9697266,40.6430664c0.0195312,0.0102539,1.9599609,1.0585938,3.1650391,3.1845703   c0.1845703,0.324707,0.5224609,0.5068359,0.8710938,0.5068359c0.1669922,0,0.3359375-0.0419922,0.4921875-0.1298828   c0.4804688-0.2724609,0.6494141-0.8828125,0.3769531-1.3632812c-1.4892578-2.6269531-3.8671875-3.9111328-3.9677734-3.9648438   c-0.4882812-0.2587891-1.0927734-0.0737305-1.3515625,0.4140625   C81.2958984,39.7783203,81.4814453,40.3837891,81.9697266,40.6430664z"
       id="path36"
       style="fill:#1abc9c;fill-opacity:0.99215686" /></g></svg>